<mxfile host="app.diagrams.net" modified="2022-07-06T17:57:52.464Z" agent="5.0 (Windows NT 10.0; Win64; x64) AppleWebKit/537.36 (KHTML, like Gecko) Chrome/103.0.0.0 Safari/537.36" etag="9XQH-6e5of36oIpvgSVa" version="20.0.4" type="github">
  <diagram id="C5RBs43oDa-KdzZeNtuy" name="Page-1">
    <mxGraphModel dx="1422" dy="762" grid="1" gridSize="10" guides="1" tooltips="1" connect="1" arrows="1" fold="1" page="1" pageScale="1" pageWidth="827" pageHeight="1169" math="0" shadow="0">
      <root>
        <mxCell id="WIyWlLk6GJQsqaUBKTNV-0" />
        <mxCell id="WIyWlLk6GJQsqaUBKTNV-1" parent="WIyWlLk6GJQsqaUBKTNV-0" />
        <mxCell id="WIyWlLk6GJQsqaUBKTNV-2" value="" style="rounded=0;html=1;jettySize=auto;orthogonalLoop=1;fontSize=11;endArrow=block;endFill=0;endSize=8;strokeWidth=1;shadow=0;labelBackgroundColor=none;edgeStyle=orthogonalEdgeStyle;entryX=0.5;entryY=0;entryDx=0;entryDy=0;" parent="WIyWlLk6GJQsqaUBKTNV-1" source="WIyWlLk6GJQsqaUBKTNV-3" target="ejw2p2MigIKduZR3JGfs-0" edge="1">
          <mxGeometry relative="1" as="geometry">
            <mxPoint x="220" y="170" as="targetPoint" />
          </mxGeometry>
        </mxCell>
        <mxCell id="WIyWlLk6GJQsqaUBKTNV-3" value="START" style="rounded=1;whiteSpace=wrap;html=1;fontSize=12;glass=0;strokeWidth=1;shadow=0;" parent="WIyWlLk6GJQsqaUBKTNV-1" vertex="1">
          <mxGeometry x="300" y="60" width="120" height="40" as="geometry" />
        </mxCell>
        <mxCell id="ejw2p2MigIKduZR3JGfs-3" style="edgeStyle=orthogonalEdgeStyle;rounded=0;orthogonalLoop=1;jettySize=auto;html=1;exitX=0.5;exitY=1;exitDx=0;exitDy=0;entryX=0.5;entryY=0;entryDx=0;entryDy=0;" edge="1" parent="WIyWlLk6GJQsqaUBKTNV-1" source="ejw2p2MigIKduZR3JGfs-0" target="ejw2p2MigIKduZR3JGfs-1">
          <mxGeometry relative="1" as="geometry" />
        </mxCell>
        <mxCell id="ejw2p2MigIKduZR3JGfs-0" value="Generate random word" style="rounded=0;whiteSpace=wrap;html=1;" vertex="1" parent="WIyWlLk6GJQsqaUBKTNV-1">
          <mxGeometry x="300" y="160" width="120" height="60" as="geometry" />
        </mxCell>
        <mxCell id="ejw2p2MigIKduZR3JGfs-10" value="" style="edgeStyle=orthogonalEdgeStyle;rounded=0;orthogonalLoop=1;jettySize=auto;html=1;" edge="1" parent="WIyWlLk6GJQsqaUBKTNV-1" source="ejw2p2MigIKduZR3JGfs-1" target="ejw2p2MigIKduZR3JGfs-6">
          <mxGeometry relative="1" as="geometry" />
        </mxCell>
        <mxCell id="ejw2p2MigIKduZR3JGfs-1" value="Generate string with &quot;_&quot; replacing letters" style="rounded=0;whiteSpace=wrap;html=1;" vertex="1" parent="WIyWlLk6GJQsqaUBKTNV-1">
          <mxGeometry x="300" y="260" width="120" height="60" as="geometry" />
        </mxCell>
        <mxCell id="ejw2p2MigIKduZR3JGfs-12" value="" style="edgeStyle=orthogonalEdgeStyle;rounded=0;orthogonalLoop=1;jettySize=auto;html=1;" edge="1" parent="WIyWlLk6GJQsqaUBKTNV-1" source="ejw2p2MigIKduZR3JGfs-6" target="ejw2p2MigIKduZR3JGfs-7">
          <mxGeometry relative="1" as="geometry" />
        </mxCell>
        <mxCell id="ejw2p2MigIKduZR3JGfs-6" value="Ask user to &lt;br&gt;guess a letter" style="rounded=0;whiteSpace=wrap;html=1;" vertex="1" parent="WIyWlLk6GJQsqaUBKTNV-1">
          <mxGeometry x="300" y="360" width="120" height="60" as="geometry" />
        </mxCell>
        <mxCell id="ejw2p2MigIKduZR3JGfs-7" value="Is the letter in the word?" style="rhombus;whiteSpace=wrap;html=1;" vertex="1" parent="WIyWlLk6GJQsqaUBKTNV-1">
          <mxGeometry x="282.5" y="470" width="155" height="80" as="geometry" />
        </mxCell>
        <mxCell id="ejw2p2MigIKduZR3JGfs-11" value="" style="endArrow=classic;html=1;rounded=0;entryX=0.5;entryY=0;entryDx=0;entryDy=0;exitX=1;exitY=0.5;exitDx=0;exitDy=0;" edge="1" parent="WIyWlLk6GJQsqaUBKTNV-1" source="ejw2p2MigIKduZR3JGfs-7" target="ejw2p2MigIKduZR3JGfs-18">
          <mxGeometry width="50" height="50" relative="1" as="geometry">
            <mxPoint x="450" y="510" as="sourcePoint" />
            <mxPoint x="540" y="510" as="targetPoint" />
            <Array as="points">
              <mxPoint x="510" y="510" />
            </Array>
          </mxGeometry>
        </mxCell>
        <mxCell id="ejw2p2MigIKduZR3JGfs-15" value="" style="endArrow=classic;html=1;rounded=0;exitX=0;exitY=0.5;exitDx=0;exitDy=0;entryX=0.45;entryY=-0.05;entryDx=0;entryDy=0;entryPerimeter=0;" edge="1" parent="WIyWlLk6GJQsqaUBKTNV-1" source="ejw2p2MigIKduZR3JGfs-7" target="ejw2p2MigIKduZR3JGfs-19">
          <mxGeometry width="50" height="50" relative="1" as="geometry">
            <mxPoint x="390" y="490" as="sourcePoint" />
            <mxPoint x="240" y="510" as="targetPoint" />
            <Array as="points">
              <mxPoint x="234" y="510" />
            </Array>
          </mxGeometry>
        </mxCell>
        <mxCell id="ejw2p2MigIKduZR3JGfs-16" value="YES" style="text;html=1;strokeColor=none;fillColor=none;align=center;verticalAlign=middle;whiteSpace=wrap;rounded=0;" vertex="1" parent="WIyWlLk6GJQsqaUBKTNV-1">
          <mxGeometry x="437.5" y="480" width="60" height="30" as="geometry" />
        </mxCell>
        <mxCell id="ejw2p2MigIKduZR3JGfs-17" value="NO" style="text;html=1;strokeColor=none;fillColor=none;align=center;verticalAlign=middle;whiteSpace=wrap;rounded=0;" vertex="1" parent="WIyWlLk6GJQsqaUBKTNV-1">
          <mxGeometry x="235" y="480" width="60" height="30" as="geometry" />
        </mxCell>
        <mxCell id="ejw2p2MigIKduZR3JGfs-31" value="" style="edgeStyle=orthogonalEdgeStyle;rounded=0;orthogonalLoop=1;jettySize=auto;html=1;" edge="1" parent="WIyWlLk6GJQsqaUBKTNV-1" source="ejw2p2MigIKduZR3JGfs-18" target="ejw2p2MigIKduZR3JGfs-30">
          <mxGeometry relative="1" as="geometry" />
        </mxCell>
        <mxCell id="ejw2p2MigIKduZR3JGfs-18" value="Replace &quot;_&quot; with letter in the masked word" style="rounded=0;whiteSpace=wrap;html=1;" vertex="1" parent="WIyWlLk6GJQsqaUBKTNV-1">
          <mxGeometry x="450" y="560" width="120" height="60" as="geometry" />
        </mxCell>
        <mxCell id="ejw2p2MigIKduZR3JGfs-22" value="" style="edgeStyle=orthogonalEdgeStyle;rounded=0;orthogonalLoop=1;jettySize=auto;html=1;" edge="1" parent="WIyWlLk6GJQsqaUBKTNV-1" source="ejw2p2MigIKduZR3JGfs-19" target="ejw2p2MigIKduZR3JGfs-20">
          <mxGeometry relative="1" as="geometry" />
        </mxCell>
        <mxCell id="ejw2p2MigIKduZR3JGfs-19" value="Lose a life" style="rounded=0;whiteSpace=wrap;html=1;" vertex="1" parent="WIyWlLk6GJQsqaUBKTNV-1">
          <mxGeometry x="180" y="560" width="120" height="60" as="geometry" />
        </mxCell>
        <mxCell id="ejw2p2MigIKduZR3JGfs-25" value="" style="edgeStyle=orthogonalEdgeStyle;rounded=0;orthogonalLoop=1;jettySize=auto;html=1;entryX=0;entryY=0.5;entryDx=0;entryDy=0;" edge="1" parent="WIyWlLk6GJQsqaUBKTNV-1" source="ejw2p2MigIKduZR3JGfs-20" target="ejw2p2MigIKduZR3JGfs-6">
          <mxGeometry relative="1" as="geometry">
            <mxPoint x="110" y="380" as="targetPoint" />
            <Array as="points">
              <mxPoint x="110" y="700" />
              <mxPoint x="110" y="390" />
            </Array>
          </mxGeometry>
        </mxCell>
        <mxCell id="ejw2p2MigIKduZR3JGfs-20" value="Any lives left?" style="rhombus;whiteSpace=wrap;html=1;" vertex="1" parent="WIyWlLk6GJQsqaUBKTNV-1">
          <mxGeometry x="185" y="660" width="110" height="80" as="geometry" />
        </mxCell>
        <mxCell id="ejw2p2MigIKduZR3JGfs-26" value="YES" style="text;html=1;strokeColor=none;fillColor=none;align=center;verticalAlign=middle;whiteSpace=wrap;rounded=0;" vertex="1" parent="WIyWlLk6GJQsqaUBKTNV-1">
          <mxGeometry x="120" y="670" width="60" height="30" as="geometry" />
        </mxCell>
        <mxCell id="ejw2p2MigIKduZR3JGfs-27" value="GAME OVER" style="rounded=1;whiteSpace=wrap;html=1;" vertex="1" parent="WIyWlLk6GJQsqaUBKTNV-1">
          <mxGeometry x="317.5" y="800" width="120" height="50" as="geometry" />
        </mxCell>
        <mxCell id="ejw2p2MigIKduZR3JGfs-29" value="NO" style="text;html=1;strokeColor=none;fillColor=none;align=center;verticalAlign=middle;whiteSpace=wrap;rounded=0;" vertex="1" parent="WIyWlLk6GJQsqaUBKTNV-1">
          <mxGeometry x="180" y="760" width="60" height="30" as="geometry" />
        </mxCell>
        <mxCell id="ejw2p2MigIKduZR3JGfs-30" value="Are all letters unmasked?" style="rhombus;whiteSpace=wrap;html=1;" vertex="1" parent="WIyWlLk6GJQsqaUBKTNV-1">
          <mxGeometry x="455" y="660" width="110" height="80" as="geometry" />
        </mxCell>
        <mxCell id="ejw2p2MigIKduZR3JGfs-34" value="" style="endArrow=classic;html=1;rounded=0;entryX=0;entryY=0.5;entryDx=0;entryDy=0;exitX=0.5;exitY=1;exitDx=0;exitDy=0;" edge="1" parent="WIyWlLk6GJQsqaUBKTNV-1" source="ejw2p2MigIKduZR3JGfs-20" target="ejw2p2MigIKduZR3JGfs-27">
          <mxGeometry width="50" height="50" relative="1" as="geometry">
            <mxPoint x="230" y="790" as="sourcePoint" />
            <mxPoint x="280" y="740" as="targetPoint" />
            <Array as="points">
              <mxPoint x="240" y="825" />
            </Array>
          </mxGeometry>
        </mxCell>
        <mxCell id="ejw2p2MigIKduZR3JGfs-35" value="" style="endArrow=classic;html=1;rounded=0;exitX=0.5;exitY=1;exitDx=0;exitDy=0;entryX=1;entryY=0.5;entryDx=0;entryDy=0;" edge="1" parent="WIyWlLk6GJQsqaUBKTNV-1" source="ejw2p2MigIKduZR3JGfs-30" target="ejw2p2MigIKduZR3JGfs-27">
          <mxGeometry width="50" height="50" relative="1" as="geometry">
            <mxPoint x="500" y="820" as="sourcePoint" />
            <mxPoint x="550" y="770" as="targetPoint" />
            <Array as="points">
              <mxPoint x="510" y="825" />
            </Array>
          </mxGeometry>
        </mxCell>
        <mxCell id="ejw2p2MigIKduZR3JGfs-36" value="" style="endArrow=classic;html=1;rounded=0;exitX=1;exitY=0.5;exitDx=0;exitDy=0;entryX=1;entryY=0.5;entryDx=0;entryDy=0;" edge="1" parent="WIyWlLk6GJQsqaUBKTNV-1" source="ejw2p2MigIKduZR3JGfs-30" target="ejw2p2MigIKduZR3JGfs-6">
          <mxGeometry width="50" height="50" relative="1" as="geometry">
            <mxPoint x="390" y="670" as="sourcePoint" />
            <mxPoint x="620" y="370" as="targetPoint" />
            <Array as="points">
              <mxPoint x="640" y="700" />
              <mxPoint x="640" y="390" />
            </Array>
          </mxGeometry>
        </mxCell>
        <mxCell id="ejw2p2MigIKduZR3JGfs-37" value="NO" style="text;html=1;strokeColor=none;fillColor=none;align=center;verticalAlign=middle;whiteSpace=wrap;rounded=0;" vertex="1" parent="WIyWlLk6GJQsqaUBKTNV-1">
          <mxGeometry x="565" y="670" width="60" height="30" as="geometry" />
        </mxCell>
        <mxCell id="ejw2p2MigIKduZR3JGfs-38" value="YES" style="text;html=1;strokeColor=none;fillColor=none;align=center;verticalAlign=middle;whiteSpace=wrap;rounded=0;" vertex="1" parent="WIyWlLk6GJQsqaUBKTNV-1">
          <mxGeometry x="510" y="750" width="60" height="30" as="geometry" />
        </mxCell>
      </root>
    </mxGraphModel>
  </diagram>
</mxfile>
